<svg xmlns="http://www.w3.org/2000/svg" xmlns:xlink="http://www.w3.org/1999/xlink" width="117" height="34" viewBox="0 0 117 34">
    <defs>
        <path id="a" d="M17.951.19H0v26.765h17.951V.19z"/>
        <path id="c" d="M.852.222h.743c2.444 0 4.067.774 4.879 2.312l-5.28 18.132a.497.497 0 0 1-.476.36.647.647 0 0 1-.512-.251V.252c.206-.02.42-.03.646-.03z"/>
        <path id="e" d="M116.323 27.794H0V.058h116.323z"/>
        <path id="g" d="M116.323.14H0v20.69h116.323z"/>
        <linearGradient id="i" x1="50%" x2="50%" y1="0%" y2="100%">
            <stop offset="0%" stop-color="#FF6F00"/>
            <stop offset="100%" stop-color="#FF9A00"/>
        </linearGradient>
    </defs>
    <g fill="none" fill-rule="evenodd">
        <g transform="translate(0 .088)">
            <mask id="b" fill="#fff">
                <use xlink:href="#a"/>
            </mask>
            <path fill="#41484B" d="M17.2 10.195H11.48a.756.756 0 0 1-.751-.76V5.902c0-.61-.345-.917-1.032-.917H8.253c-.688 0-1.031.306-1.031.917v15.342c0 .612.343.917 1.031.917h1.445c.687 0 1.032-.305 1.032-.917v-3.368c0-.42.336-.76.751-.76H17.2c.415 0 .751.34.751.76v3.91c0 3.447-2.022 5.17-6.066 5.17H6.066C2.022 26.955 0 25.232 0 21.785V5.36C0 1.913 2.022.19 6.066.19h5.82c4.043 0 6.065 1.724 6.065 5.17v4.077c0 .419-.336.76-.751.76" mask="url(#b)"/>
        </g>
        <path fill="#41484B" d="M31.982 5.939h.192a.43.43 0 0 1 .427.432v5.306a.43.43 0 0 1-.427.432H30.25c-1.733 0-2.6.945-2.6 2.835v11.294a.71.71 0 0 1-.706.713H21.34a.71.71 0 0 1-.706-.713V6.86a.71.71 0 0 1 .706-.714h5.48c.39 0 .705.32.705.714v2.497c.22-1.057.715-1.89 1.486-2.502.77-.61 1.76-.917 2.971-.917M44.32 21.114v-9.13c0-.611-.343-.917-1.03-.917h-1.115c-.688 0-1.032.306-1.032.917v9.13c0 .612.344.917 1.032.917h1.114c.688 0 1.032-.305 1.032-.917M40.11 6.147h5.241c2.091 0 3.591.445 4.5 1.334.907.89 1.36 2.168 1.36 3.836V21.78c0 1.668-.453 2.947-1.36 3.836-.909.89-2.409 1.334-4.5 1.334h-5.24c-2.091 0-3.59-.444-4.498-1.334-.908-.89-1.362-2.168-1.362-3.836V11.317c0-1.668.454-2.946 1.362-3.836.907-.889 2.407-1.334 4.498-1.334M111.435 16.335l4.848 10.052a.387.387 0 0 1-.344.557h-6.218c-.16 0-.304-.101-.36-.253l-2.135-5.833-1.935 5.822a.384.384 0 0 1-.363.264h-5.98a.387.387 0 0 1-.35-.547l4.46-9.939-4.676-9.473a.387.387 0 0 1 .343-.56h6.445c.167 0 .315.11.365.272l1.69 5.444 1.69-5.444a.384.384 0 0 1 .367-.272h6.093c.28 0 .465.293.348.55l-4.288 9.36z"/>
        <path fill="#4B4B4C" d="M65.297 26.591l5.28-18.132c-.812-1.538-2.436-2.312-4.88-2.312h-.743c-2.119 0-3.37.89-3.755 2.668V7.382c0-.682-.547-1.235-1.222-1.235h-4.419c-.69 0-1.25.566-1.25 1.264V26.06c0 .493.394.892.882.892h5.318a.82.82 0 0 0 .815-.824V12.61c0-.833.371-1.25 1.114-1.25h.701c.688 0 1.032.306 1.032.917v14.018c0 .363.292.657.65.657.22 0 .415-.146.477-.36"/>
        <g transform="translate(64.103 5.925)">
            <mask id="d" fill="#fff">
                <use xlink:href="#c"/>
            </mask>
            <path fill="#666" d="M7.983-.778H.206v22.36H1.52z" mask="url(#d)"/>
        </g>
        <g>
            <g transform="translate(0 6.203)">
                <mask id="f" fill="#fff">
                    <use xlink:href="#e"/>
                </mask>
                <path fill="#666" d="M-2189.184.058h4507.261M84.047 27.794h-3.466v-5.128h3.054c.66 0 1.182-.112 1.568-.334.385-.222.715-.75.99-1.584h-1.775c-.54 0-1.019-.353-1.183-.873L77.263.954a.56.56 0 0 1 .528-.732h6.149c.257 0 .48.178.54.43l3.24 13.634L89.874.695a.557.557 0 0 1 .548-.473h5.88a.56.56 0 0 1 .54.692l-4.995 21.085c-.578 1.918-1.459 3.362-2.641 4.335-1.184.973-2.903 1.46-5.159 1.46" mask="url(#f)"/>
            </g>
            <g transform="translate(0 6.203)">
                <mask id="h" fill="#fff">
                    <use xlink:href="#g"/>
                </mask>
                <path fill="#41484B" d="M-2189.184.14h4507.261-4507.261zM86.193 20.83h-1.775c-.54 0-1.019-.353-1.183-.873L77.263 1.036a.56.56 0 0 1 .528-.732h6.149c.257 0 .48.178.54.43l3.24 13.634-1.527 6.462z" mask="url(#h)"/>
            </g>
        </g>
        <path d="M67.989 22.65c-.222 0-.333.112-.444.224l-1.11 3.587c-.11.224.111.448.333.448h15.098c.222 0 .444-.224.333-.448l-1.11-3.587c0-.112-.222-.224-.333-.224H67.989z"/>
        <path d="M74.652 8.714l-1.183 16.408c.056.148.112.296.26.239l.588.045c.101.046.293-.113.237-.26l1.183-16.408c.045-.103-.112-.297-.259-.24l-.589-.045a.095.095 0 0 0-.04-.008c-.103 0-.246.138-.197.269"/>
        <path d="M72.52 16.954l.596 2.743c-.007.083.15.181.233.188l1.927.17c.165.015.255-.06.344-.137l1.058-2.597c.097-.159-.054-.34-.22-.355l-3.66-.324a.191.191 0 0 0-.023 0c-.158 0-.32.146-.254.312"/>
        <path fill="url(#i)" d="M82.108 25.872l-1.07-3.421c0-.107-.213-.214-.32-.214h-5.803l.183-2.504.34.03c.158.013.245-.06.331-.132l1.02-2.477c.093-.152-.053-.325-.212-.34l-1.259-.11.564-7.739c.043-.097-.108-.282-.25-.228l-.567-.043c-.098-.044-.283.108-.229.249l-.558 7.67-1.229-.107c-.159-.014-.332.131-.266.297l.573 2.617c-.007.08.145.173.225.18l.476.042-.189 2.595h-5.452c-.214 0-.32.107-.428.214l-1.069 3.421c-.107.214.107.428.321.428h14.547c.214 0 .428-.214.321-.428"/>
    </g>
</svg>
