<svg xmlns="http://www.w3.org/2000/svg" xmlns:xlink="http://www.w3.org/1999/xlink" width="24" height="24" viewBox="0 0 24 24">
    <defs>
        <path id="a" d="M0 0h16v16H0z"/>
        <linearGradient id="b" x1="50%" x2="50%" y1="0%" y2="100%">
            <stop offset="0%" stop-color="#FF5050"/>
            <stop offset="100%" stop-color="#DB3E3E"/>
        </linearGradient>
    </defs>
    <g fill="none" fill-rule="evenodd" transform="translate(4 4)">
        <mask id="c" fill="#fff">
            <use xlink:href="#a"/>
        </mask>
        <path fill="url(#b)" fill-rule="nonzero" d="M6 14c0 .367.3.667.667.667h2.666c.367 0 .667-.3.667-.667v-.667H6V14zM8 1.333A4.672 4.672 0 0 0 3.333 6c0 1.587.794 2.98 2 3.827v1.506c0 .367.3.667.667.667h4c.367 0 .667-.3.667-.667V9.827c1.206-.847 2-2.24 2-3.827A4.672 4.672 0 0 0 8 1.333z" mask="url(#c)"/>
    </g>
</svg>
